<svg width="68" height="68" fill="white" xmlns="http://www.w3.org/2000/svg">
  <path d="M64.6 10.2h-7.93V7.93a3.41 3.41 0 0 0-3.4-3.4h-7.94v-3.4A1.13 1.13 0 0 0 44.2 0H1.13A1.13 1.13 0 0 0 0 1.13V64.6a1.13 1.13 0 0 0 1.13 1.13h34.2a3.41 3.41 0 0 0 3.2 2.27h6.8a3.41 3.41 0 0 0 3.4-3.4V45.33h1.14A1.13 1.13 0 0 0 51 44.2v-4.53a1.13 1.13 0 0 0-1.13-1.14h-4.54V34H64.6a3.41 3.41 0 0 0 3.4-3.4v-17a3.41 3.41 0 0 0-3.4-3.4Zm-7.93 9.07V17h4.53v10.2H45.33v-4.53h7.94a3.41 3.41 0 0 0 3.4-3.4ZM53.27 6.8a1.13 1.13 0 0 1 1.13 1.13v11.34a1.13 1.13 0 0 1-1.13 1.13h-40.8a1.13 1.13 0 0 1-1.14-1.13V7.93a1.13 1.13 0 0 1 1.14-1.13h40.8Zm-24.94 17a3.41 3.41 0 0 0-3.4 3.4v7.93a1.13 1.13 0 1 1-2.26 0v-3.4a3.4 3.4 0 1 0-6.8 0V44.2a1.13 1.13 0 0 1-2.27 0V22.67H34v9.06a1.13 1.13 0 1 1-2.27 0V27.2a3.41 3.41 0 0 0-3.4-3.4Zm6.8 39.67H2.27V2.27h40.8v2.26h-30.6a3.41 3.41 0 0 0-3.4 3.4v2.27H7.93a2.27 2.27 0 0 0-2.26 2.27v2.26A2.27 2.27 0 0 0 7.93 17h1.14v2.27a3.41 3.41 0 0 0 2.26 3.2V44.2a3.4 3.4 0 0 0 6.8 0V31.73a1.13 1.13 0 0 1 2.27 0v3.4a3.4 3.4 0 1 0 6.8 0V27.2a1.13 1.13 0 0 1 2.27 0v4.53a3.4 3.4 0 1 0 6.8 0v-9.06h6.8v4.53h-1.14a3.41 3.41 0 0 0-3.4 3.4v7.93H34a1.13 1.13 0 0 0-1.13 1.14v4.53A1.13 1.13 0 0 0 34 45.33h1.13v18.14Zm-26.06-51v2.26H7.93v-2.26h1.14Zm37.4 52.13a1.13 1.13 0 0 1-1.14 1.13h-6.8a1.13 1.13 0 0 1-1.13-1.13V45.33h9.07V64.6Zm2.26-23.8v2.27h-13.6V40.8h13.6Zm17-10.2a1.13 1.13 0 0 1-1.13 1.13H45.33A2.27 2.27 0 0 0 43.07 34v4.53H40.8V30.6a1.13 1.13 0 0 1 1.13-1.13H61.2a2.27 2.27 0 0 0 2.27-2.27V17a2.27 2.27 0 0 0-2.27-2.27h-4.53v-2.26h7.93a1.13 1.13 0 0 1 1.13 1.13v17Z"/>
  <path d="M14.73 49.87a3.4 3.4 0 1 0 0 6.8 3.4 3.4 0 0 0 0-6.8Zm0 4.53a1.13 1.13 0 1 1 0-2.27 1.13 1.13 0 0 1 0 2.27ZM23.8 40.8a3.4 3.4 0 1 0 0 6.8 3.4 3.4 0 0 0 0-6.8Zm0 4.53a1.13 1.13 0 1 1 0-2.26 1.13 1.13 0 0 1 0 2.26ZM13.6 10.2a1.13 1.13 0 0 0 1.13 1.13h30.6a1.13 1.13 0 1 0 0-2.26h-30.6a1.13 1.13 0 0 0-1.13 1.13ZM49.87 11.33H51a1.13 1.13 0 1 0 0-2.26h-1.13a1.13 1.13 0 0 0 0 2.26Z"/>
</svg>