<svg width="77" height="63" fill="white" xmlns="http://www.w3.org/2000/svg">
  <path d="M64.45.06h-25.8c-1.47 0-2.7 1.11-2.88 2.54h-3.75a2.5 2.5 0 0 0-2.5 2.5v.21h-3.95a6.9 6.9 0 0 0-6.8 5.75H1.13a1.12 1.12 0 1 0 0 2.25h17.66a6.9 6.9 0 0 0 6.79 5.75h3.94v.2a2.5 2.5 0 0 0 2.5 2.5h3.76a2.91 2.91 0 0 0 2.89 2.55h1.68c.28 1.88.71 4.99-1.1 7.86-.46.74-.34 1.3-.16 1.64.2.33.6.74 1.46.74h4.7l-1.32 13.3h-4.45a7.56 7.56 0 0 0-7.56 7.54v5.63c0 1.05.86 1.91 1.92 1.91H62.6c1.06 0 1.92-.86 1.92-1.91V49.77c0-1.06-.86-1.92-1.92-1.92h-3.1c.03-2.96.24-5.8.6-8.43a1.12 1.12 0 1 0-2.22-.3 71.1 71.1 0 0 0-.63 8.73H46.17l1.42-14.3v-.02l.91-9.22h13.98a37.98 37.98 0 0 0-3.67 9.78 1.12 1.12 0 1 0 2.19.51 34.76 34.76 0 0 1 4.08-10.3A12.15 12.15 0 0 0 76.6 12.17C76.6 5.5 71.15.06 64.45.06ZM25.57 16.82a4.64 4.64 0 1 1 0-9.26h3.94v9.26h-3.94Zm6.19 2.45V5.1c0-.14.11-.25.26-.25h3.73v14.67h-3.73a.26.26 0 0 1-.26-.25Zm30.52 41.42H34.15v-5.3c0-2.92 2.39-5.3 5.32-5.3h1.61v2.3c0 2.13 2.33 4.13 4.13 4.13h17.07v4.17Zm0-10.6v4.18H45.2c-.56 0-1.88-.98-1.88-1.88v-2.3H62.28ZM45.46 32.3h-3.73c1.47-3.05 1.15-6.1.88-8h3.64l-.8 8Zm18.99-10.24h-4.57v-6.84a1.12 1.12 0 1 0-2.25 0v6.84H38.66a.67.67 0 0 1-.67-.66V2.97c0-.36.3-.66.67-.66h18.97v7.74a1.12 1.12 0 1 0 2.25 0V2.31h4.57a9.9 9.9 0 0 1 9.9 9.87 9.9 9.9 0 0 1-9.9 9.88Z"/>
  <path d="M63.63 9.45c-.62 0-1.12.5-1.12 1.13v3.21a1.12 1.12 0 1 0 2.24 0v-3.21c0-.62-.5-1.13-1.12-1.13ZM68.59 9.45c-.62 0-1.12.5-1.12 1.13v3.21a1.12 1.12 0 1 0 2.24 0v-3.21c0-.62-.5-1.13-1.12-1.13ZM49.74 5.09h-5.06a3.87 3.87 0 0 0 0 7.72h5.06a3.87 3.87 0 0 0 0-7.72Zm0 5.48h-5.06c-.9 0-1.62-.73-1.62-1.62 0-.9.73-1.62 1.62-1.62h5.06a1.62 1.62 0 0 1 0 3.24Z"/>\
</svg>