<svg width="76" height="59" fill="white" xmlns="http://www.w3.org/2000/svg">
  <path d="M71.856 5.543h-5.042V4.282A3.782 3.782 0 0 0 63.032.5h-7.564v.029a4.974 4.974 0 0 0-3.136 1.082L37.29 13.737a3.77 3.77 0 0 0-3.254-1.891h-20.17a3.782 3.782 0 0 0-3.782 3.782v8.824H3.782A3.782 3.782 0 0 0 0 28.234v17.65a3.782 3.782 0 0 0 2.533 3.553c0 .076-.012.151-.012.228a8.825 8.825 0 0 0 17.65 0h7.563a8.825 8.825 0 1 0 10.085-8.724V30.856l17.741-18.2a3.782 3.782 0 0 0 3.69 2.972h2.521v7.564a2.521 2.521 0 0 0 2.522 2.52v10.16c-3.62.389-6.304 2.428-6.304 4.968s2.684 4.58 6.304 4.97v10.158a1.26 1.26 0 0 0 2.521 0v-2.594c3.62-.39 6.303-2.43 6.303-4.97 0-2.54-2.684-4.58-6.303-4.97v-5.188c3.62-.39 6.303-2.43 6.303-4.97 0-2.54-2.684-4.58-6.303-4.969v-2.594a2.521 2.521 0 0 0 2.521-2.521v-7.564h2.522a3.782 3.782 0 0 0 3.781-3.782V9.324a3.782 3.782 0 0 0-3.782-3.781ZM60.511 40.84c0-1.008 1.555-2.109 3.782-2.424v4.849c-2.227-.315-3.782-1.416-3.782-2.425Zm10.085 7.564c0 1.009-1.556 2.11-3.782 2.425V45.98c2.226.315 3.782 1.416 3.782 2.424Zm0-15.127c0 1.008-1.556 2.109-3.782 2.424v-4.849c2.226.316 3.782 1.416 3.782 2.425ZM64.293 4.282v1.26h-3.8a5.006 5.006 0 0 0-.663-2.52h3.202c.696 0 1.26.564 1.26 1.26ZM35.298 15.628v17.649H20.17a1.26 1.26 0 0 1-1.26-1.261V14.367h15.127c.697 0 1.26.564 1.26 1.26ZM2.52 45.883V28.234c0-.696.565-1.26 1.26-1.26h6.304V40.94a8.838 8.838 0 0 0-7.092 5.901 1.238 1.238 0 0 1-.472-.959Zm8.825 10.085a6.303 6.303 0 1 1 6.303-6.303 6.31 6.31 0 0 1-6.303 6.303Zm8.452-8.824a8.84 8.84 0 0 0-7.192-6.203V15.628c0-.697.565-1.26 1.261-1.26h2.521v17.648a3.782 3.782 0 0 0 3.782 3.782h15.128v5.143a8.84 8.84 0 0 0-7.186 6.203h-8.314Zm23.064 2.521a6.303 6.303 0 1 1-6.303-6.303 6.31 6.31 0 0 1 6.303 6.303Zm-5.043-33.118L53.914 3.575a2.51 2.51 0 0 1 3.53.39c.413.51.602 1.165.525 1.817a3.77 3.77 0 0 0-2.474 3.336L37.819 27.24V16.547Zm28.995 6.645h-2.521v-7.564h2.521v7.564Zm6.303-11.346a1.26 1.26 0 0 1-1.26 1.26H59.25a1.26 1.26 0 0 1-1.26-1.26V9.324c0-.696.564-1.26 1.26-1.26h12.606c.697 0 1.261.564 1.261 1.26v2.522Z"/>
  <path d="M22.692 20.67c.334 0 .654-.133.89-.37l1.261-1.26a1.26 1.26 0 0 0-1.782-1.782l-1.26 1.26a1.26 1.26 0 0 0 .89 2.152ZM22.692 26.974c.334 0 .654-.134.89-.37l7.565-7.564a1.26 1.26 0 0 0-1.783-1.782L21.8 24.822a1.26 1.26 0 0 0 .892 2.152ZM11.346 45.883a3.782 3.782 0 1 0 0 7.564 3.782 3.782 0 0 0 0-7.564Zm0 5.043a1.26 1.26 0 1 1 0-2.522 1.26 1.26 0 0 1 0 2.522ZM32.777 49.665a3.782 3.782 0 1 0 7.563 0 3.782 3.782 0 0 0-7.563 0Zm5.042 0a1.26 1.26 0 1 1-2.521 0 1.26 1.26 0 0 1 2.521 0ZM21.43 38.32h-1.26a1.26 1.26 0 1 0 0 2.52h1.26a1.26 1.26 0 0 0 0-2.52Z"/>
</svg>