<svg width="18" height="19" viewBox="0 0 18 19" fill="none" xmlns="http://www.w3.org/2000/svg">
<path fill-rule="evenodd" clip-rule="evenodd" d="M3.65104 2.70622C3.49177 2.70587 3.33823 2.72396 3.19234 2.75836C2.99234 2.31597 2.72816 1.91908 2.42769 1.61753C1.91772 1.10573 1.11341 0.903931 0 0.903931V2.70393C0.680165 2.70393 1.07157 2.80213 1.15945 2.89033C1.49841 3.2305 1.79357 3.92169 1.79357 4.50393L1.80258 4.63121L2.68132 10.8044C1.21098 10.8809 0.0719201 12.0269 0.00110177 13.4593L0 14.4039C0.0868279 15.8835 1.2221 17.0216 2.63945 17.1025L2.84304 17.1028C3.21205 18.1521 4.20889 18.9039 5.38071 18.9039C6.55211 18.9039 7.54865 18.1526 7.91798 17.1039H10.0177C10.3871 18.1526 11.3836 18.9039 12.555 18.9039C14.0408 18.9039 15.2454 17.6951 15.2454 16.2039C15.2454 14.7128 14.0408 13.5039 12.555 13.5039C11.3836 13.5039 10.3871 14.2553 10.0177 15.3039H7.91798C7.54865 14.2553 6.55211 13.5039 5.38071 13.5039C4.20932 13.5039 3.21277 14.2553 2.84344 15.3039H2.69036C2.233 15.2764 1.82275 14.8651 1.79196 14.35L1.79357 13.5039C1.81775 13.0371 2.2252 12.6282 2.7348 12.6028L4.50517 12.6033L4.51801 12.6039H13.5566L13.6889 12.5618C14.3689 12.3452 14.9132 11.8314 15.1709 11.1662L15.2654 10.9785L15.5724 10.3682C15.8899 9.73646 16.2075 9.10361 16.517 8.48535C17.275 6.9709 17.7517 6.00843 17.8573 5.77208C18.3994 4.55834 17.3012 3.62415 16.1786 3.60425L3.65104 2.70622ZM13.245 10.8039H4.58515C4.52757 10.7879 4.48369 10.7389 4.4751 10.6779L3.59634 4.50459L16.0465 5.39936C15.8287 5.84522 15.4327 6.64157 14.9142 7.67741L14.9012 7.70337C14.6053 8.2946 14.2882 8.92658 13.971 9.5575L13.6645 10.167L13.5482 10.3979L13.5045 10.4999C13.4577 10.6309 13.3646 10.7385 13.245 10.8039ZM12.555 17.1039C13.0503 17.1039 13.4518 16.701 13.4518 16.2039C13.4518 15.7069 13.0503 15.3039 12.555 15.3039C12.0597 15.3039 11.6582 15.7069 11.6582 16.2039C11.6582 16.701 12.0597 17.1039 12.555 17.1039ZM6.2775 16.2039C6.2775 16.701 5.876 17.1039 5.38072 17.1039C4.88544 17.1039 4.48393 16.701 4.48393 16.2039C4.48393 15.7069 4.88544 15.3039 5.38072 15.3039C5.876 15.3039 6.2775 15.7069 6.2775 16.2039Z" fill="white"/>
</svg>
