<svg width="77" height="57" fill="#ca2c37" xmlns="http://www.w3.org/2000/svg">
  <path d="M62.02 18.01H57.2l1.45-16.69v-.09c0-.46-.27-.86-.67-1.03h-.01a1.09 1.09 0 0 0-.08-.03l-.03-.01-.06-.02-.05-.01-.06-.01h-.05L57.63.1H34.57a1.12 1.12 0 0 0 0 2.24H56.3l-2.24 25.64-.56 6.48h-39l.66-6.73h7.42a1.12 1.12 0 1 0 0-2.25h-7.2l1.37-14.21h11.82a1.12 1.12 0 1 0 0-2.25h-11.6l.65-6.68h12.45a1.12 1.12 0 0 0 0-2.24H16.6c-.53 0-.99.37-1.1.88V1l-.01.09v.03l-.77 7.91H1.13a1.12 1.12 0 1 0 0 2.25H14.5l-1.38 14.21h-4a1.12 1.12 0 1 0 0 2.25h3.78l-.75 7.73L11 47.45v.24l.02.08v.03l.02.06v.05h.01c.06.18.15.33.27.45l.04.04c.08.07.17.13.26.18l.06.03h.02l.09.03.1.03h.02a1.12 1.12 0 0 0 .21.02h5a8.56 8.56 0 0 0 16.94 0h18a8.56 8.56 0 0 0 16.93 0h5.13l.09-.02h.03l.07-.02.04-.02.06-.02.04-.02a1.3 1.3 0 0 0 .18-.1l.05-.03.04-.03a.9.9 0 0 0 .04-.04l.03-.03.05-.05.02-.03.05-.06.01-.02.05-.09.05-.1.01-.03.03-.07.01-.05.02-.05v-.05l.01-.05a397 397 0 0 0 1.32-11.99v-.01c.12-1.32.19-2.42.19-3.1A14.6 14.6 0 0 0 62.02 18ZM57 20.25h4.6L61 27h-4.58l.58-6.74ZM25.6 53.86a6.3 6.3 0 1 1 .01-12.61 6.3 6.3 0 0 1-.01 12.61Zm34.93 0a6.3 6.3 0 1 1 .02-12.61 6.3 6.3 0 0 1-.02 12.61ZM73 46.44h-4a8.56 8.56 0 0 0-16.94 0h-18a8.56 8.56 0 0 0-16.94 0h-3.76l.94-9.73H54.67l.09-.02h.04l.06-.03.05-.01.05-.02.05-.02.05-.03.04-.02.05-.03.04-.03a1.23 1.23 0 0 0 .26-.26 1.17 1.17 0 0 0 .06-.09l.02-.04.03-.05.02-.05.02-.05.01-.05.02-.05.01-.06v-.05l.02-.05v-.01l.56-6.46h5.8c3.44 0 4.99 1.78 6.63 3.67 1.36 1.55 2.87 3.3 5.44 3.71a418 418 0 0 1-1.1 9.83Zm1.28-12.07c-1.67-.34-2.7-1.52-3.94-2.94-1.55-1.79-3.45-3.97-7.09-4.38l.58-6.66a12.36 12.36 0 0 1 10.53 12.2c0 .43-.03 1.04-.08 1.78Z"/>
  <path d="M25.59 43.45a4.12 4.12 0 1 0 0 8.24 4.12 4.12 0 0 0 0-8.24Zm0 5.98a1.87 1.87 0 1 1 0-3.74 1.87 1.87 0 0 1 0 3.74ZM60.52 43.45a4.12 4.12 0 1 0 .01 8.24 4.12 4.12 0 0 0 0-8.24Zm0 5.98a1.87 1.87 0 1 1 0-3.74 1.87 1.87 0 0 1 0 3.74ZM10.62 18.01H5.14a1.12 1.12 0 1 0 0 2.24h5.48a1.12 1.12 0 1 0 0-2.24Z"/>
</svg>